<svg width="17" height="17" viewBox="0 0 17 17" fill="none" xmlns="http://www.w3.org/2000/svg">
<path d="M14.1666 8.49995V6.39229C14.1666 4.84589 12.913 3.59229 11.3666 3.59229H5.63331C4.08692 3.59229 2.83331 4.84589 2.83331 6.39228V12.1256C2.83331 13.672 4.08691 14.9256 5.63331 14.9256H11.3666C12.913 14.9256 14.1666 13.672 14.1666 12.1256V12.0923V11.3333" stroke="#4285F4" stroke-width="1.5" stroke-linecap="round"/>
<path d="M6.07141 4.40176V2.78271" stroke="#4285F4" stroke-width="1.5" stroke-linecap="round"/>
<path d="M10.9286 4.40176V2.78271" stroke="#4285F4" stroke-width="1.5" stroke-linecap="round"/>
<path d="M13.7619 12.9018H7.2857C4.82671 12.9018 2.83331 10.9084 2.83331 8.44937V8.44937" stroke="#4285F4" stroke-width="1.5" stroke-linecap="round"/>
<path d="M5.66663 7.08331H6.02079" stroke="#4285F4" stroke-width="1.5" stroke-linecap="round"/>
<path d="M8.5 7.08331H8.85417" stroke="#4285F4" stroke-width="1.5" stroke-linecap="round"/>
<path d="M11.3333 7.08331H11.6875" stroke="#4285F4" stroke-width="1.5" stroke-linecap="round"/>
<path d="M5.66663 9.91666H6.02079" stroke="#4285F4" stroke-width="1.5" stroke-linecap="round"/>
<path d="M8.5 9.91666H8.85417" stroke="#4285F4" stroke-width="1.5" stroke-linecap="round"/>
<path d="M11.3333 9.91666H11.6875" stroke="#4285F4" stroke-width="1.5" stroke-linecap="round"/>
</svg>
