<svg width="32" height="32" viewBox="0 0 32 32" fill="none" xmlns="http://www.w3.org/2000/svg">
<g clip-path="url(#clip0_1_264)">
<path d="M25.3959 8.8345L25.392 8.8383C25.4757 9.0702 25.5537 9.305 25.6205 9.5445C25.5527 9.3047 25.48 9.067 25.3959 8.8345ZM16 2.23L8.929 5.1593L12.9916 9.222C13.7857 8.42248 14.8648 7.97114 15.9916 7.96728C17.1185 7.96341 18.2007 8.40734 19.0002 9.2014C19.7997 9.99546 20.2511 11.0746 20.2549 12.2014C20.2588 13.3283 19.8149 14.4105 19.0208 15.21L25 9.23L25.392 8.838C24.6966 6.90405 23.4216 5.23171 21.7407 4.04912C20.0599 2.86652 18.0552 2.23127 16 2.23Z" fill="#4285F4"/>
<path d="M16 16.4733C15.16 16.4732 14.3388 16.2241 13.6402 15.7575C12.9417 15.291 12.397 14.6278 12.0751 13.8519C11.7532 13.076 11.6685 12.2221 11.8316 11.3981C11.9947 10.574 12.3984 9.81677 12.9916 9.222L8.929 5.1593C7.99904 6.08679 7.26154 7.18892 6.75889 8.40235C6.25623 9.61578 5.99833 10.9166 6 12.23C6 16.6357 8.2651 19.3968 10.93 22.23C11.1087 22.4128 11.2574 22.6152 11.4259 22.8046L18.9867 15.2437C18.1927 16.0321 17.1189 16.4742 16 16.4733Z" fill="#FFBA00"/>
<path d="M16 2.23C13.3478 2.23 10.8043 3.28357 8.92893 5.15893C7.05357 7.0343 6 9.57784 6 12.23C5.99797 13.4031 6.18206 14.5692 6.5454 15.6846L19.3959 2.8346C18.3077 2.43703 17.1585 2.23242 16 2.23Z" fill="#0066DA"/>
<path d="M16.9011 29.12C17.8094 26.5927 19.1763 24.2547 20.9331 22.2234C23.7976 19.3129 26 16.636 26 12.23C25.9977 11.0715 25.7933 9.92238 25.3959 8.8342L11.4259 22.8042C13.0342 24.6324 14.2559 26.7672 15.0173 29.08C15.0812 29.277 15.2048 29.4493 15.3711 29.5729C15.5373 29.6964 15.7379 29.7652 15.945 29.7696C16.1521 29.774 16.3554 29.7138 16.5267 29.5974C16.6981 29.481 16.8289 29.3141 16.9011 29.12Z" fill="#00AC47"/>
<path opacity="0.5" d="M10.93 22.23C11.1087 22.4128 11.2574 22.6152 11.4259 22.8046C11.257 22.6155 11.1083 22.4131 10.93 22.23ZM7.207 7.4637C6.8966 8.03512 6.64306 8.63563 6.45 9.2566C6.6431 8.63565 6.89665 8.03514 7.207 7.4637ZM6.45 9.2566C6.25243 9.89209 6.11909 10.5458 6.052 11.2079C6.1191 10.5458 6.25244 9.89209 6.45 9.2566Z" fill="#0066DA"/>
<path d="M15.1957 29.3989C15.2157 29.4237 15.2402 29.4411 15.2621 29.4633C15.24 29.4411 15.2156 29.4236 15.1957 29.3989ZM15.7874 29.7429L15.8274 29.7495L15.7874 29.7429ZM13.6216 25.9269C13.5845 25.8599 13.5537 25.7887 13.5157 25.7222C13.5533 25.789 13.5849 25.86 13.6216 25.9269ZM15.0173 29.08C14.8127 28.4776 14.5825 27.8921 14.3267 27.3234C14.5793 27.8937 14.8127 28.4771 15.0173 29.08ZM15.5269 29.6563C15.504 29.6451 15.4806 29.6356 15.4585 29.6225C15.4809 29.6356 15.5036 29.6452 15.5269 29.6563ZM19.7117 23.7529C19.4627 24.1003 19.2438 24.4654 19.019 24.827C19.2431 24.465 19.4633 24.1006 19.7117 23.7529Z" fill="white"/>
<path d="M17.0468 28.774C17.2812 28.1827 17.5332 27.6017 17.8029 27.0312C17.5316 27.6006 17.2812 28.1826 17.0468 28.774ZM18.68 25.3584C18.3921 25.8541 18.13 26.3652 17.88 26.8826C18.13 26.3647 18.3931 25.8547 18.68 25.3584Z" fill="white"/>
<path d="M8.929 5.1593C7.99904 6.08679 7.26154 7.18892 6.75889 8.40235C6.25623 9.61578 5.99833 10.9166 6 12.23C5.99797 13.4031 6.18206 14.5692 6.5454 15.6846L13 9.23L8.929 5.1593Z" fill="#EA4435"/>
</g>
<defs>
<clipPath id="clip0_1_264">
<rect width="32" height="32" fill="white"/>
</clipPath>
</defs>
</svg>
